<svg id="Layer_1" data-name="Layer 1" xmlns="http://www.w3.org/2000/svg" viewBox="0 0 512 512"><defs><style>.cls-1{fill:#262626;}</style></defs><circle class="cls-1" cx="387.78" cy="299.56" r="44.48" transform="translate(-85.12 171.2) rotate(-22.5)"/><path class="cls-1" d="M494,225.36c-1.57-2.88-3.32-5.85-5.22-8.82a146.07,146.07,0,0,0-110.5-67A169.31,169.31,0,0,0,389,105.77h78.12a17.67,17.67,0,1,0,0-35.33h-432a17.67,17.67,0,1,0,0,35.33h92.24c-3.14,18.93-9,35.32-17,49.24-18.21,31.6-47.83,50.38-83.22,56.91-1.11.21-2.24.4-3.37.59a16.28,16.28,0,0,0-13.78,16v.17a16.21,16.21,0,0,0,16.2,16.21,102.77,102.77,0,0,0,21.44-2.26,100.07,100.07,0,0,0,20.45-6.76c18.78-8.57,44.65-24.93,69.19-55.65l1.65-.1A114,114,0,0,1,259.76,289.82a111.85,111.85,0,0,1-5.38,38.67,113.63,113.63,0,0,1-17.63,33.86C215,391.23,182,407.9,146.35,408.08h-.59a114,114,0,0,1-36.08-5.83l-2.15-.75-.23-.08c-.63-.22-1.26-.46-1.92-.71s-1.2-.44-1.87-.72l-1.55-.64-1.35-.56-.53-.24-.12-.05c-.63-.28-1.27-.55-1.92-.86s-1.4-.65-2.14-1l-.44-.22c-2.87-1.41-5.68-3-8.37-4.57a112.42,112.42,0,0,1-53.47-80,16.48,16.48,0,0,0-1.21-4.29,17,17,0,0,0-4.42-6,16.79,16.79,0,0,0-23.74,1.69A16.84,16.84,0,0,0,.33,316.63a146.5,146.5,0,0,0,144.8,124.93q2.56,0,5.13-.09a146.48,146.48,0,0,0,105-50.19c2,2.31,4.14,4.6,6.35,6.84a146.87,146.87,0,0,0,104.1,43.44c1.67,0,3.35,0,5-.09,77.08-2.68,139-65.19,141.06-142.32A146.12,146.12,0,0,0,494,225.36ZM359.39,180.14a116.73,116.73,0,0,1,18.61.4c56.24,5.76,100.19,52.74,102.23,109.28A114.13,114.13,0,0,1,330.16,402.25l-2.27-.79-.12,0c-.63-.22-1.25-.46-1.92-.71s-1.19-.44-1.87-.72l-1.55-.64-1.35-.56-.58-.26-.09,0c-.63-.28-1.25-.55-1.89-.85s-1.41-.65-2.14-1l-.45-.22c-2.87-1.41-5.68-3-8.36-4.57a113.21,113.21,0,0,1-32.52-29.58,145.85,145.85,0,0,0,5.17-123q4.23-1.48,8.33-3.34c3-1.36,6.15-2.92,9.46-4.71,17.51-9.42,39.09-25.1,59.73-50.94Zm-121-74.37H347.82c-3.13,18.93-9,35.32-17,49.24a113.47,113.47,0,0,1-56.29,49.07c-3.88,1.59-7.88,3-12,4.22l-.21-.37-.12-.19a145.87,145.87,0,0,0-104.39-58.21,169.72,169.72,0,0,0,10.72-43.76Z"/></svg>